# xmcd CD database file
#
# Track frame offsets:
#	150
#	9512
#	31047
#	53600
#	70622
#	89155
#	107790
#	126230
#	136197
#	157492
#	179235
#
# Disc length: 2618 seconds
#
# Revision: 0
# Processed by: cddbd v1.5.1PL2 Copyright (c) Steve Scherf et al.
# Submitted via: CD2WAV32(JP) R3.22
#
DISCID=990a380b
DTITLE=808 - たこ
DYEAR=1998
DGENRE=Rock
TTITLE0=No.0808〜For Koukichi Tanaka〜
TTITLE1=ジャングル ジャングル
TTITLE2=40日ボンバー
TTITLE3=ヤッホー
TTITLE4=Re元気
TTITLE5=ふくろう
TTITLE6=summer dream once more
TTITLE7=ギブッ!!
TTITLE8=スター誕生!?
TTITLE9=Snow
TTITLE10=ハッピー ワールド〜2000年まであと2年〜
EXTD=
EXTT0=
EXTT1=
EXTT2=
EXTT3=
EXTT4=
EXTT5=
EXTT6=
EXTT7=
EXTT8=
EXTT9=
EXTT10=
PLAYORDER=
